<svg width="14" height="18" viewBox="0 0 14 18" fill="none" xmlns="http://www.w3.org/2000/svg">
<path d="M6.99972 5.34058e-05C3.55547 5.34058e-05 0.753418 2.80251 0.753418 6.24686C0.753418 9.56233 6.4208 17.3085 6.66211 17.6365L6.88732 17.943C6.90025 17.9606 6.91717 17.975 6.9367 17.9849C6.95622 17.9949 6.97782 18 6.99972 18.0001C7.02173 18.0001 7.04343 17.9949 7.06308 17.985C7.08273 17.9751 7.09976 17.9607 7.1128 17.943L7.33788 17.6365C7.57933 17.3085 13.2466 9.56233 13.2466 6.24686C13.2466 2.80251 10.4441 5.34058e-05 6.99972 5.34058e-05ZM6.99972 4.00926C8.23381 4.00926 9.23731 5.01281 9.23731 6.24686C9.23731 7.48026 8.23376 8.48445 6.99972 8.48445C5.76636 8.48445 4.76213 7.48026 4.76213 6.24686C4.76213 5.01281 5.76632 4.00926 6.99972 4.00926Z" fill="white"/>
</svg>
