<svg width="18" height="18" viewBox="0 0 18 18" fill="none" xmlns="http://www.w3.org/2000/svg">
<path d="M16.8949 12.7126C16.8488 12.6761 13.5002 10.2624 12.5811 10.4356C12.1424 10.5133 11.8915 10.8125 11.3881 11.4116C11.3071 11.5083 11.1124 11.7401 10.9611 11.9049C10.643 11.8011 10.3326 11.6748 10.0324 11.5269C8.48304 10.7726 7.23118 9.52073 6.47687 7.97133C6.32886 7.67119 6.20253 7.36084 6.09887 7.04265C6.26424 6.89077 6.49599 6.69614 6.59499 6.61289C7.19124 6.11227 7.49106 5.86139 7.56868 5.42152C7.72787 4.51027 5.31587 1.13864 5.29056 1.10827C5.18112 0.951935 5.0383 0.82188 4.87244 0.727515C4.70657 0.633151 4.5218 0.576836 4.33149 0.562645C3.35387 0.562645 0.562744 4.18346 0.562744 4.79321C0.562744 4.82864 0.613932 8.43089 5.05599 12.9495C9.57006 17.3865 13.1717 17.4376 13.2072 17.4376C13.8175 17.4376 17.4377 14.6465 17.4377 13.6689C17.4237 13.4793 17.3677 13.2951 17.2739 13.1297C17.18 12.9644 17.0506 12.8219 16.8949 12.7126Z" fill="white"/>
</svg>
