<svg width="19" height="17" viewBox="0 0 19 17" fill="none" xmlns="http://www.w3.org/2000/svg">
<path d="M0.322543 7.80514L4.53024 9.37559L6.15888 14.6133C6.26308 14.9487 6.67329 15.0727 6.94556 14.8501L9.291 12.9381C9.53685 12.7377 9.88704 12.7278 10.144 12.9143L14.3743 15.9856C14.6656 16.1973 15.0782 16.0377 15.1513 15.6857L18.2502 0.779229C18.3299 0.394774 17.9522 0.0740504 17.5861 0.215634L0.317612 6.8773C-0.108538 7.04165 -0.104825 7.64499 0.322543 7.80514ZM5.8964 8.5396L14.1198 3.47479C14.2676 3.38404 14.4197 3.58387 14.2927 3.7016L7.50605 10.0102C7.2675 10.2322 7.11362 10.5294 7.07004 10.8519L6.83885 12.5652C6.80824 12.7939 6.4869 12.8166 6.42378 12.5952L5.53465 9.47109C5.43282 9.11476 5.58122 8.73414 5.8964 8.5396Z" fill="white"/>
</svg>
